<svg width="30" height="30" viewBox="0 0 30 30" fill="none" xmlns="http://www.w3.org/2000/svg"><g clip-path="url(#clip0)"><path d="M29.555 17.632l-3.422-7.33 1.477.424a.61.61 0 1 0 .337-1.174L17.676 6.604a2.678 2.678 0 0 0-5.013-1.439L2.39 2.218a.611.611 0 0 0-.337 1.175l2.028.582-3.672 7.863a.611.611 0 0 0-.409.577 4.9 4.9 0 0 0 8.371 3.458 4.843 4.843 0 0 0 1.462-3.458.611.611 0 0 0-.445-.588L5.976 4.518l6.348 1.821a2.683 2.683 0 0 0 2.065 2.74v12.105h-1.687c-1.348 0-2.469 1.082-2.469 2.43v.354a2.463 2.463 0 0 0-1.955 2.396v.855c.01.345.29.621.635.626h12.174a.645.645 0 0 0 .635-.626v-.855a2.463 2.463 0 0 0-1.955-2.396v-.354c0-1.348-1.122-2.43-2.469-2.43h-1.687V9.08a2.689 2.689 0 0 0 1.727-1.301l6.917 1.985-3.679 7.88a.611.611 0 0 0-.41.576 4.9 4.9 0 0 0 8.372 3.459A4.844 4.844 0 0 0 30 18.219a.611.611 0 0 0-.445-.587zM4.9 5.076l3.127 6.698H1.775L4.9 5.076zm0 10.988a3.654 3.654 0 0 1-3.628-3.068h7.284A3.707 3.707 0 0 1 4.9 16.064zm15.6 10.3v.26h-11v-.26c0-.673.572-1.207 1.246-1.207h8.506c.674 0 1.247.534 1.247 1.208zm-1.957-2.75v.321h-7.088v-.32c0-.674.573-1.208 1.246-1.208h4.596c.674 0 1.247.534 1.247 1.208zM15 7.93a1.458 1.458 0 1 1 1.416-1.116.608.608 0 0 0-.034.12A1.459 1.459 0 0 1 15 7.929zm13.195 9.65H21.94l3.127-6.697 3.127 6.697zm-3.127 4.29a3.654 3.654 0 0 1-3.628-3.067h7.284a3.708 3.708 0 0 1-3.656 3.067z" fill="#1C1C1C"/></g><defs><clipPath id="clip0"><path fill="#fff" d="M0 0h30v30H0z"/></clipPath></defs></svg>