<svg width="30" height="30" viewBox="0 0 30 30" fill="none" xmlns="http://www.w3.org/2000/svg"><g clip-path="url(#clip0)"><path d="M29.358 5.363H5.572c-.047 0-.088.018-.132.027l-.968-3.212c-.01-.035-.034-.06-.05-.093a.637.637 0 0 0-.632-.592h-.002L.64 1.507a.644.644 0 0 0 .003 1.286h.002l2.666-.012 6.155 20.425a3.035 3.035 0 0 0-1.002 2.247 3.053 3.053 0 1 0 6.107 0c0-.44-.096-.855-.263-1.232h8.884a3.031 3.031 0 0 0-.264 1.232 3.053 3.053 0 1 0 1.33-2.518H13.241a3.037 3.037 0 0 0-1.724-.535c-.319 0-.62.062-.908.152l-.918-3.046 16.196-.013a.636.636 0 0 0 .602-.442c.022-.04.046-.08.058-.126l3.429-12.643a.626.626 0 0 0 .015-.238c0-.014.008-.025.008-.037a.642.642 0 0 0-.642-.644zm-3.375 18.322a1.77 1.77 0 0 1 1.768 1.768 1.77 1.77 0 0 1-1.768 1.768 1.77 1.77 0 0 1-1.768-1.768 1.77 1.77 0 0 1 1.768-1.768zm-14.465 0a1.77 1.77 0 0 1 1.768 1.768 1.77 1.77 0 0 1-1.768 1.768 1.77 1.77 0 0 1-1.768-1.768 1.77 1.77 0 0 1 1.768-1.768zm13.893-5.477l-16.105.013L5.819 6.65h22.727L25.41 18.21z" fill="#1C1C1C"/></g><defs><clipPath id="clip0"><path fill="#fff" d="M0 0h30v30H0z"/></clipPath></defs></svg>