<svg width="30" height="30" viewBox="0 0 30 30" fill="none" xmlns="http://www.w3.org/2000/svg">
<g clip-path="url(#clip0)">
<path d="M29.5545 17.632L26.1326 10.3025L27.6097 10.7263C27.9341 10.8194 28.2726 10.632 28.3655 10.3073C28.4586 9.9829 28.2712 9.64464 27.9468 9.55154L17.6759 6.60413C17.678 6.56021 17.6792 6.51629 17.6792 6.47212C17.6794 5.25253 16.8561 4.18667 15.6759 3.87944C14.4957 3.57198 13.257 4.10073 12.6624 5.1654L2.39049 2.21822C2.06608 2.12513 1.72758 2.31276 1.63448 2.63717C1.54162 2.96158 1.72901 3.29984 2.05342 3.39294L4.08059 3.97469L0.409396 11.838C0.164475 11.9237 0.000239036 12.1547 3.21511e-07 12.4145C-0.000715825 14.3984 1.19501 16.1869 3.02857 16.9443C4.86214 17.702 6.97166 17.279 8.37148 15.8732C9.30414 14.9639 9.83098 13.7171 9.83337 12.4145C9.83337 12.1409 9.65123 11.9007 9.38793 11.8265L5.97598 4.51872L12.3244 6.34011C12.3222 6.38404 12.321 6.42796 12.321 6.47236C12.3229 7.71583 13.1787 8.79506 14.389 9.08008V21.1851H12.7022C11.3545 21.1851 10.2335 22.2667 10.2335 23.6147V23.9694C9.09932 24.2082 8.28507 25.2055 8.27791 26.3647V27.2203C8.28817 27.5652 8.56818 27.8412 8.91336 27.8462H21.0869C21.432 27.8412 21.712 27.5652 21.7223 27.2203V26.3647C21.7152 25.2055 20.9009 24.2082 19.7668 23.9694V23.6147C19.7668 22.2667 18.6455 21.1851 17.298 21.1851H15.6112V9.08008C16.3436 8.90701 16.9697 8.43484 17.3378 7.77861L24.2548 9.76352L20.576 17.6435C20.3308 17.7292 20.1666 17.9603 20.1664 18.2198C20.1659 20.2037 21.3616 21.9922 23.1952 22.7496C25.0287 23.5073 27.138 23.0845 28.5379 21.6787C29.4705 20.7692 29.9976 19.5224 30 18.2198C29.9997 17.9462 29.8178 17.7063 29.5545 17.632ZM4.90129 5.07636L8.02821 11.774H1.7746L4.90129 5.07636ZM4.90129 16.0639C3.10138 16.0744 1.56191 14.773 1.27307 12.9962H8.55744C8.2464 14.7715 6.70382 16.0661 4.90129 16.0639ZM20.5001 26.3647V26.624H9.50012V26.3647C9.50012 25.6908 10.073 25.1573 10.7467 25.1573H19.2535C19.9272 25.1573 20.5001 25.6908 20.5001 26.3647ZM18.5445 23.6147V23.9351H11.4557V23.6147C11.4557 22.9408 12.0286 22.4073 12.7022 22.4073H17.298C17.9716 22.4073 18.5445 22.9408 18.5445 23.6147ZM15.0001 7.929C14.3787 7.92948 13.8254 7.53608 13.6218 6.94908C13.4181 6.36208 13.6089 5.71062 14.0968 5.32605C14.585 4.94148 15.2632 4.90854 15.7862 5.24417C16.3092 5.57957 16.562 6.20954 16.4162 6.81349C16.4006 6.85216 16.3892 6.89202 16.3818 6.93284C16.1829 7.52724 15.6267 7.92828 15.0001 7.929ZM28.1948 17.5795H21.9412L25.0679 10.8819L28.1948 17.5795ZM25.0679 21.8695C23.268 21.88 21.7285 20.5785 21.4397 18.8017H28.7241C28.413 20.5771 26.8704 21.8716 25.0679 21.8695Z" fill="#1C1C1C"/>
</g>
<defs>
<clipPath id="clip0">
<rect width="30" height="30" fill="white"/>
</clipPath>
</defs>
</svg>
