<svg width="30" height="30" viewBox="0 0 30 30" fill="none" xmlns="http://www.w3.org/2000/svg">
<g clip-path="url(#clip0)">
<path d="M29.3577 5.36313H5.57168C5.52537 5.36313 5.48366 5.38054 5.43984 5.39014L4.47237 2.17773C4.46147 2.14302 4.43826 2.11731 4.42286 2.0852C4.39645 1.75481 4.12717 1.49313 3.79028 1.49313C3.78968 1.49313 3.78838 1.49313 3.78768 1.49313L0.640286 1.50654C0.284785 1.50854 -0.00129595 1.79782 4.41554e-06 2.15262C0.00130478 2.50682 0.288686 2.7929 0.642886 2.7929C0.643487 2.7929 0.644787 2.7929 0.645487 2.7929L3.31144 2.7813L9.46558 23.2058C8.85421 23.7644 8.464 24.5603 8.464 25.4532C8.464 27.1395 9.83069 28.5068 11.5176 28.5068C13.2038 28.5068 14.5711 27.1394 14.5711 25.4532C14.5711 25.0135 14.4747 24.5982 14.3076 24.2209H23.192C23.0248 24.5983 22.9284 25.0135 22.9284 25.4532C22.9284 27.1395 24.2951 28.5068 25.982 28.5068C27.6682 28.5068 29.0355 27.1394 29.0355 25.4532C29.0355 23.767 27.6681 22.3997 25.982 22.3997C25.3417 22.3997 24.7483 22.5983 24.2572 22.9352H13.2418C12.7506 22.5983 12.1578 22.3997 11.5176 22.3997C11.1994 22.3997 10.8985 22.462 10.6098 22.552L9.69175 19.5061L25.8881 19.4932C26.1716 19.4932 26.405 19.3062 26.4899 19.0509C26.5118 19.0104 26.5355 18.9712 26.5484 18.9249L29.9768 6.28229C29.9987 6.20197 30.0012 6.12155 29.9922 6.04382C29.9928 6.03032 29.9999 6.01942 29.9999 6.00651C30.0006 5.65111 29.7126 5.36313 29.3577 5.36313ZM25.9827 23.6848C26.9578 23.6848 27.7506 24.4774 27.7506 25.4527C27.7506 26.4279 26.9579 27.2206 25.9827 27.2206C25.0074 27.2206 24.2148 26.428 24.2148 25.4527C24.2149 24.4774 25.0075 23.6848 25.9827 23.6848ZM11.5183 23.6848C12.4935 23.6848 13.2862 24.4774 13.2862 25.4527C13.2862 26.4279 12.4935 27.2206 11.5183 27.2206C10.543 27.2206 9.75036 26.428 9.75036 25.4527C9.75036 24.4774 10.543 23.6848 11.5183 23.6848ZM25.4112 18.2082L9.30554 18.2211L5.81925 6.6495H28.5458L25.4112 18.2082Z" fill="#1C1C1C"/>
</g>
<defs>
<clipPath id="clip0">
<rect width="30" height="30" fill="white"/>
</clipPath>
</defs>
</svg>
